<?xml version="1.0" encoding="UTF-8"?>
<svg xmlns="http://www.w3.org/2000/svg" xmlns:xlink="http://www.w3.org/1999/xlink" width="22pt" height="22pt" viewBox="0 0 22 22" version="1.1">
<g id="surface1">
<path style=" stroke:none;fill-rule:nonzero;fill:rgb(0%,0%,0%);fill-opacity:1;" d="M 21.511719 17.390625 L 18.113281 13.992188 C 17.4375 13.316406 16.316406 13.339844 15.613281 14.039062 L 13.902344 15.75 C 13.792969 15.691406 13.683594 15.628906 13.566406 15.5625 C 12.484375 14.964844 11.003906 14.140625 9.445312 12.585938 C 7.886719 11.023438 7.0625 9.539062 6.460938 8.457031 C 6.398438 8.34375 6.339844 8.234375 6.277344 8.128906 L 7.992188 6.414062 C 8.695312 5.714844 8.714844 4.59375 8.039062 3.917969 L 4.640625 0.519531 C 3.964844 -0.15625 2.84375 -0.136719 2.140625 0.566406 L 1.183594 1.527344 L 1.210938 1.554688 C 0.886719 1.964844 0.621094 2.4375 0.421875 2.945312 C 0.238281 3.429688 0.121094 3.894531 0.0703125 4.359375 C -0.378906 8.078125 1.320312 11.476562 5.933594 16.089844 C 12.3125 22.46875 17.449219 21.988281 17.671875 21.964844 C 18.15625 21.90625 18.617188 21.789062 19.089844 21.605469 C 19.59375 21.410156 20.066406 21.140625 20.476562 20.820312 L 20.496094 20.839844 L 21.464844 19.890625 C 22.167969 19.1875 22.1875 18.066406 21.511719 17.390625 Z M 21.511719 17.390625 "/>
</g>
</svg>
